<svg width="100" height="100" viewBox="0 0 100 100" fill="none" xmlns="http://www.w3.org/2000/svg">
<g clip-path="url(#clip0_4722_4371)">
<path d="M55.4976 28.6666C69.9758 28.6666 81.7476 39.5513 81.7476 54.1666C81.7476 68.7275 70.0274 81.7496 55.4995 81.7496H51.2397L51.0962 81.4938C50.4821 80.3931 49.3261 79.6667 47.9146 79.6666H45.8306C44.4199 79.6667 43.2675 80.3923 42.6509 81.4938L42.5073 81.7496H38.3354C23.8184 81.7496 12.0865 69.702 11.9976 54.1696V54.1637L12.0103 53.526C12.4528 40.1588 24.0715 28.6669 38.3325 28.6666H55.4976Z" stroke="#DA1A35"/>
<path fill-rule="evenodd" clip-rule="evenodd" d="M13.2715 60.745C17.9418 68.5698 27.1345 73.75 37.7166 73.75H56.1295C66.6914 73.75 75.8681 68.1688 80.5148 60.4015C77.767 71.9914 67.6101 81.25 55.4996 81.25H51.533C50.8309 79.9917 49.508 79.1667 47.9142 79.1667H45.8309C44.2371 79.1667 42.9184 79.9917 42.2142 81.25H38.3351C26.2357 81.25 16.0848 72.705 13.2715 60.745Z" fill="#221F20" fill-opacity="0.05"/>
<path d="M69.266 77.4668C69.1711 77.7518 69.0874 78.0487 69.0121 78.3506C68.7044 79.5835 68.5187 81.0154 68.4066 82.3652C68.2943 83.718 68.2542 85.0038 68.2425 85.9502C68.2367 86.4237 68.238 86.8133 68.2406 87.085C68.2419 87.2208 68.2441 87.3276 68.2455 87.4004C68.2461 87.4366 68.246 87.4644 68.2464 87.4834L68.2474 87.5C68.2474 88.4088 67.5717 89.0828 66.6644 89.083H56.2474C55.2926 89.083 54.6183 88.8459 54.1312 88.4941C53.641 88.1401 53.3008 87.6413 53.0658 87.0537C52.5866 85.8558 52.5804 84.3916 52.5804 83.333C52.5804 82.7929 52.4729 82.2568 52.2777 81.75H55.4994C60.5621 81.75 65.2691 80.1459 69.266 77.4668Z" fill="white" stroke="#DA1A35"/>
<path d="M79.4456 43.5642C80.0639 43.9737 80.7019 44.3004 81.3265 44.5798C82.0616 44.9087 82.801 45.1833 83.4476 45.4421C84.0255 45.6735 84.5347 45.8946 84.9632 46.1453L85.1419 46.2546C86.2656 46.9744 86.656 47.3525 86.8304 47.7615C86.9184 47.9679 86.9641 48.2145 86.9837 48.5779C87.0038 48.9499 86.9945 49.392 86.9945 49.9998V58.3337C86.969 58.9598 86.9723 59.3602 86.9505 59.7673C86.9302 60.1484 86.8905 60.4069 86.808 60.6218C86.6719 60.9756 86.3823 61.3086 85.5501 61.8318L85.1595 62.0681C84.6183 62.3846 83.9692 62.6708 83.2474 62.9812C82.5351 63.2875 81.7573 63.6158 81.0003 64.0056C80.5119 64.2572 80.0247 64.5377 79.5599 64.8621C80.9573 61.5306 81.7445 57.9063 81.7445 54.1667C81.7445 50.3288 80.9146 46.7561 79.4456 43.5642Z" fill="white" stroke="#DA1A35"/>
<path d="M20.8289 27.5834C21.7045 27.5834 22.4128 28.2923 22.4129 29.1664C22.4129 30.0406 21.7046 30.7504 20.8289 30.7504C18.2551 30.7505 16.1631 32.8426 16.1629 35.4164C16.1629 36.7268 16.7143 37.8964 17.5789 38.7386C16.9166 39.5693 16.3075 40.4395 15.7518 41.3412C14.0723 39.9041 12.9959 37.789 12.9959 35.4164C12.9961 31.0969 16.5095 27.5835 20.8289 27.5834Z" fill="white" stroke="#DA1A35"/>
<path d="M24.3947 77.6044C28.4348 80.2383 33.2085 81.7499 38.3322 81.7499H41.466C41.2708 82.2566 41.1633 82.7928 41.1633 83.3329C41.1633 84.3915 41.157 85.8557 40.6779 87.0536C40.4429 87.6411 40.1027 88.14 39.6125 88.494C39.1254 88.8458 38.4511 89.0829 37.4963 89.0829H26.7961C26.7888 89.0817 26.7034 89.0685 26.5461 88.9843C26.3958 88.9037 26.2226 88.7808 26.0598 88.6249C25.727 88.3062 25.4984 87.9096 25.4963 87.5057C25.4964 87.5025 25.4971 87.4989 25.4973 87.495C25.4982 87.4749 25.4995 87.4453 25.5012 87.4071C25.5044 87.3304 25.5086 87.2177 25.5129 87.0751C25.5214 86.7898 25.5299 86.3813 25.5295 85.8856C25.5286 84.8949 25.493 83.5502 25.3517 82.1415C25.2109 80.7368 24.9632 79.2473 24.5314 77.9755C24.4889 77.8502 24.4416 77.7269 24.3947 77.6044Z" fill="white" stroke="#DA1A35"/>
<path d="M75.5669 25.5195C75.1519 25.9596 74.6494 26.5648 74.1392 27.3584C72.9819 29.1582 71.7858 31.909 71.4341 35.8438L71.3755 36.6465C71.3357 37.3386 71.3058 37.9879 71.2114 38.5879C71.1175 39.1853 70.9651 39.6887 70.7056 40.0879C70.2543 40.7818 69.3668 41.3206 67.3364 41.2119L66.9155 41.1816C64.5603 40.9692 62.5756 40.3134 61.1929 39.2705C59.8266 38.2399 59.0327 36.8227 59.0327 35.0059C59.0328 33.0915 59.4343 31.518 60.2114 30.2324C60.9394 29.0283 62.0155 28.0458 63.4653 27.2686L63.7603 27.1162C64.5232 26.7342 65.7122 26.4304 67.1099 26.1973C68.4954 25.9662 70.0419 25.8107 71.4927 25.707C72.942 25.6034 74.2889 25.5523 75.2739 25.5264C75.3755 25.5237 75.4734 25.5217 75.5669 25.5195Z" fill="white" stroke="#DA1A35"/>
<path d="M74.9968 47.9167C76.1473 47.9167 77.0801 46.9839 77.0801 45.8333C77.0801 44.6827 76.1473 43.75 74.9968 43.75C73.8462 43.75 72.9134 44.6827 72.9134 45.8333C72.9134 46.9839 73.8462 47.9167 74.9968 47.9167Z" fill="#DA1A35"/>
<path d="M55 32.5H36.25C35.5596 32.5 35 33.0596 35 33.75C35 34.4404 35.5596 35 36.25 35H55C55.6904 35 56.25 34.4404 56.25 33.75C56.25 33.0596 55.6904 32.5 55 32.5Z" fill="#31343D"/>
<path d="M45.625 7C53.1499 7 59.25 13.1001 59.25 20.625C59.25 28.1499 53.1499 34.25 45.625 34.25C38.1001 34.25 32 28.1499 32 20.625C32 13.1001 38.1001 7 45.625 7Z" fill="white" stroke="#31343D"/>
<path d="M50 23.9625C50 27.05 47.0034 27.4062 46.4041 27.4062V29.1875H45.0856V27.4062C44.6062 27.4062 41.25 27.05 41.25 23.25H43.7671C43.7671 23.6062 43.7671 25.3875 45.6849 25.3875C47.363 25.3875 47.363 24.0813 47.363 23.8438C47.363 21.1125 41.6096 22.1812 41.6096 17.7875C41.6096 15.175 44.0069 14.3438 45.2055 14.3438V12.5625H46.6438V14.4625C47.4829 14.5813 50 15.175 50 18.5H47.4829C47.4829 17.7875 47.363 16.3625 45.8048 16.3625C44.3664 16.4812 44.3664 17.7875 44.3664 18.025C44.3664 20.5188 50 19.5688 50 23.9625Z" fill="#5F5E5E"/>
</g>
<defs>
<clipPath id="clip0_4722_4371">
<rect width="100" height="100" fill="white"/>
</clipPath>
</defs>
</svg>
