<svg width="100" height="100" viewBox="0 0 100 100" fill="none" xmlns="http://www.w3.org/2000/svg">
<path d="M50 9.25C72.5207 9.25 90.75 27.4793 90.75 50C90.75 72.5207 72.5207 90.75 50 90.75C27.4793 90.75 9.25 72.5207 9.25 50C9.25 27.4793 27.4793 9.25 50 9.25Z" fill="white" stroke="#31343D"/>
<path d="M50 16.75C68.3758 16.75 83.25 31.6242 83.25 50C83.25 68.3758 68.3758 83.25 50 83.25C31.6242 83.25 16.75 68.3758 16.75 50C16.75 31.6242 31.6242 16.75 50 16.75Z" stroke="#DA1A35"/>
<path d="M50 25.5C63.5401 25.5 74.5 36.4599 74.5 50C74.5 63.5401 63.5401 74.5 50 74.5C36.4599 74.5 25.5 63.5401 25.5 50C25.5 36.4599 36.4599 25.5 50 25.5Z" stroke="#DA1A35"/>
<path d="M50 34.25C58.7044 34.25 65.75 41.2956 65.75 50C65.75 58.7044 58.7044 65.75 50 65.75C41.2956 65.75 34.25 58.7044 34.25 50C34.25 41.2956 41.2956 34.25 50 34.25Z" stroke="#DA1A35"/>
<path d="M50 43.75C46.5459 43.75 43.75 46.5459 43.75 50C43.75 53.4541 46.5459 56.25 50 56.25C53.4541 56.25 56.25 53.4541 56.25 50C56.25 46.5459 53.4541 43.75 50 43.75Z" fill="#DA1A35"/>
<path d="M80.7496 19.2496H88.9049C88.8905 19.2931 88.8771 19.3391 88.861 19.3864C88.6958 19.8715 88.4418 20.5526 88.0856 21.3287C87.3702 22.8871 86.2571 24.8031 84.6588 26.3043L84.6481 26.3151C83.896 27.0652 82.5262 27.7629 80.818 28.3834C79.1276 28.9975 77.1722 29.5133 75.3082 29.9274C73.4461 30.341 71.6855 30.6508 70.3903 30.858C69.7843 30.955 69.2806 31.0282 68.9166 31.0797C68.9682 30.7098 69.0435 30.1961 69.1412 29.5778C69.3486 28.266 69.6592 26.4861 70.0729 24.611C70.487 22.7337 71.0023 20.772 71.6158 19.0924C72.237 17.392 72.9326 16.0569 73.6725 15.3619L73.6842 15.3512L73.6949 15.3405C75.1961 13.7422 77.1121 12.629 78.6705 11.9137C79.4464 11.5576 80.1268 11.3034 80.6119 11.1383C80.6594 11.1221 80.706 11.1078 80.7496 11.0934V19.2496Z" fill="#E9E9E9" stroke="#31343D"/>
<path d="M88.9565 11.0438C88.1273 10.2063 86.8731 10.2063 86.044 11.0438L48.544 48.5438C47.7065 49.3729 47.7065 50.6271 48.544 51.4563C48.9586 51.8709 49.5856 52.0834 50.0002 52.0834C50.4148 52.0834 51.0419 51.8709 51.4565 51.4563L88.9565 13.9563C89.7961 13.1271 89.7961 11.8729 88.9565 11.0438Z" fill="#5F5E5E"/>
<path d="M81.2 16.0979L84.1458 19.0437L71.9229 31.275L68.9771 28.3291L81.2 16.0979Z" fill="#E4E5E7" stroke="#31343D" stroke-linejoin="round"/>
</svg>
