<svg width="100" height="100" viewBox="0 0 100 100" fill="none" xmlns="http://www.w3.org/2000/svg">
<g opacity="0.4">
<path d="M24.2708 49.0104V28.2291L26.2499 49.0104H24.2708Z" fill="#31343D"/>
<path d="M25.2603 50C25.8069 50 26.2499 49.557 26.2499 49.0105C26.2499 48.4639 25.8069 48.0209 25.2603 48.0209C24.7138 48.0209 24.2708 48.4639 24.2708 49.0105C24.2708 49.557 24.7138 50 25.2603 50Z" fill="#31343D"/>
</g>
<g opacity="0.4">
<path d="M32.1875 49.0104V26.25L34.1667 49.0104H32.1875Z" fill="#31343D"/>
<path d="M33.1771 49.9999C33.7236 49.9999 34.1667 49.5569 34.1667 49.0103C34.1667 48.4638 33.7236 48.0208 33.1771 48.0208C32.6306 48.0208 32.1875 48.4638 32.1875 49.0103C32.1875 49.5569 32.6306 49.9999 33.1771 49.9999Z" fill="#31343D"/>
</g>
<g opacity="0.4">
<path d="M40.1064 49.0104V32.1875L42.0856 49.0104H40.1064Z" fill="#31343D"/>
<path d="M41.096 49.9999C41.6426 49.9999 42.0856 49.5569 42.0856 49.0103C42.0856 48.4638 41.6426 48.0208 41.096 48.0208C40.5495 48.0208 40.1064 48.4638 40.1064 49.0103C40.1064 49.5569 40.5495 49.9999 41.096 49.9999Z" fill="#31343D"/>
</g>
<g opacity="0.4">
<path d="M75.7315 49.0105V28.2292L73.7523 49.0105H75.7315Z" fill="#31343D"/>
<path d="M74.7418 50C75.2883 50 75.7314 49.557 75.7314 49.0105C75.7314 48.4639 75.2883 48.0209 74.7418 48.0209C74.1952 48.0209 73.7522 48.4639 73.7522 49.0105C73.7522 49.557 74.1952 50 74.7418 50Z" fill="#31343D"/>
</g>
<g opacity="0.4">
<path d="M67.8124 49.0104V26.25L65.8333 49.0104H67.8124Z" fill="#31343D"/>
<path d="M66.8228 49.9999C67.3694 49.9999 67.8124 49.5569 67.8124 49.0103C67.8124 48.4638 67.3694 48.0208 66.8228 48.0208C66.2763 48.0208 65.8333 48.4638 65.8333 49.0103C65.8333 49.5569 66.2763 49.9999 66.8228 49.9999Z" fill="#31343D"/>
</g>
<g opacity="0.4">
<path d="M59.8981 49.0104V32.1875L57.9189 49.0104H59.8981Z" fill="#31343D"/>
<path d="M58.9085 49.9999C59.4551 49.9999 59.8981 49.5569 59.8981 49.0103C59.8981 48.4638 59.4551 48.0208 58.9085 48.0208C58.362 48.0208 57.9189 48.4638 57.9189 49.0103C57.9189 49.5569 58.362 49.9999 58.9085 49.9999Z" fill="#31343D"/>
</g>
<mask id="path-13-outside-1_4722_4398" maskUnits="userSpaceOnUse" x="0.5" y="19.3125" width="98" height="62" fill="black">
<rect fill="white" x="0.5" y="19.3125" width="98" height="62"/>
<path fill-rule="evenodd" clip-rule="evenodd" d="M24.2725 53.9583V24.2708C24.2725 22.0839 26.0438 20.3125 28.2308 20.3125C30.4178 20.3125 32.1891 22.0839 32.1891 24.2708V26.1353C32.2498 24.0015 33.9972 22.2917 36.1458 22.2917C38.3328 22.2917 40.1042 24.0631 40.1042 26.2501V53.9583H40.105V32.1876C40.105 30.0006 41.8763 28.2292 44.0633 28.2292C46.2503 28.2292 48.0216 30.0006 48.0216 32.1876V53.9583H48.0235V56.9072V58.9774V67.8124C48.0235 74.3714 42.7075 79.6874 36.1485 79.6874H29.3857H26.0647C19.2029 79.6874 12.9527 75.7469 9.99382 69.5581L8.33257 66.0845L3.04751 55.5159C1.76896 52.9568 2.80605 49.8476 5.36313 48.569C7.92417 47.2905 11.0295 48.3256 12.31 50.8847L16.355 58.9746V28.2291C16.355 26.0421 18.1263 24.2708 20.3133 24.2708C22.5003 24.2708 24.2716 26.0421 24.2716 28.2291V53.9583H24.2725ZM59.8966 53.9583V32.1876C59.8966 30.0006 58.1253 28.2292 55.9383 28.2292C53.7513 28.2292 51.98 30.0006 51.98 32.1876V53.9583V56.9072V58.9774V65.8334V67.8124C51.98 74.3714 57.296 79.6874 63.855 79.6874H70.6178H73.9388C80.8006 79.6874 87.0508 75.7469 90.0097 69.5581L91.7296 65.9619L91.7282 65.9616L96.9518 55.5159C98.2303 52.9568 97.1933 49.8476 94.6362 48.569C92.0751 47.2905 88.9698 48.3256 87.6893 50.8847L83.6466 58.97V53.9583V28.2291C83.6466 26.0421 81.8753 24.2708 79.6883 24.2708C77.5397 24.2708 75.7922 25.9806 75.7316 28.1145V24.2708C75.7316 22.0839 73.9603 20.3125 71.7733 20.3125C69.5863 20.3125 67.8149 22.0839 67.8149 24.2708V53.9583H67.8141V26.2501C67.8141 24.0631 66.0428 22.2917 63.8558 22.2917C61.6688 22.2917 59.8975 24.0631 59.8975 26.2501V53.9583H59.8966Z"/>
</mask>
<path d="M24.2725 53.9583V54.9583H25.2725V53.9583H24.2725ZM32.1891 26.1353H31.1891L33.1887 26.1637L32.1891 26.1353ZM40.1042 53.9583H39.1042V54.9583H40.1042V53.9583ZM40.105 53.9583V54.9583H41.105V53.9583H40.105ZM48.0216 53.9583H47.0216V54.9583H48.0216V53.9583ZM48.0235 53.9583H49.0235V52.9583H48.0235V53.9583ZM9.99382 69.5581L10.896 69.1267L10.896 69.1266L9.99382 69.5581ZM8.33257 66.0845L9.2347 65.6531L9.23091 65.6452L9.22697 65.6373L8.33257 66.0845ZM3.04751 55.5159L2.15294 55.9628L2.1531 55.9632L3.04751 55.5159ZM5.36313 48.569L4.91647 47.6743L4.91592 47.6746L5.36313 48.569ZM12.31 50.8847L13.2044 50.4374L13.2043 50.4372L12.31 50.8847ZM16.355 58.9746L15.4606 59.4218L17.355 58.9746H16.355ZM24.2716 53.9583H23.2716V54.9583H24.2716V53.9583ZM59.8966 53.9583H58.8966V54.9583H59.8966V53.9583ZM90.0097 69.5581L89.1075 69.1266L89.1075 69.1267L90.0097 69.5581ZM91.7296 65.9619L92.6317 66.3934L93.1549 65.2994L91.9813 64.9941L91.7296 65.9619ZM91.7282 65.9616L90.8338 65.5143L90.2816 66.6186L91.4765 66.9294L91.7282 65.9616ZM96.9518 55.5159L97.8462 55.9632L97.8464 55.9628L96.9518 55.5159ZM94.6362 48.569L95.0834 47.6746L95.0828 47.6743L94.6362 48.569ZM87.6893 50.8847L86.795 50.4372L86.7949 50.4374L87.6893 50.8847ZM83.6466 58.97H82.6466L84.5411 59.4172L83.6466 58.97ZM75.7316 28.1145H74.7316L76.7312 28.1429L75.7316 28.1145ZM67.8149 53.9583V54.9583H68.8149V53.9583H67.8149ZM67.8141 53.9583H66.8141V54.9583H67.8141V53.9583ZM59.8975 53.9583V54.9583H60.8975V53.9583H59.8975ZM23.2725 24.2708V53.9583H25.2725V24.2708H23.2725ZM28.2308 19.3125C25.4915 19.3125 23.2725 21.5316 23.2725 24.2708H25.2725C25.2725 22.6361 26.5961 21.3125 28.2308 21.3125V19.3125ZM33.1891 24.2708C33.1891 21.5316 30.9701 19.3125 28.2308 19.3125V21.3125C29.8655 21.3125 31.1891 22.6361 31.1891 24.2708H33.1891ZM33.1891 26.1353V24.2708H31.1891V26.1353H33.1891ZM36.1458 21.2917C33.4545 21.2917 31.2655 23.4336 31.1895 26.1069L33.1887 26.1637C33.2341 24.5694 34.54 23.2917 36.1458 23.2917V21.2917ZM41.1042 26.2501C41.1042 23.5108 38.8851 21.2917 36.1458 21.2917V23.2917C37.7805 23.2917 39.1042 24.6154 39.1042 26.2501H41.1042ZM41.1042 53.9583V26.2501H39.1042V53.9583H41.1042ZM40.105 52.9583H40.1042V54.9583H40.105V52.9583ZM39.105 32.1876V53.9583H41.105V32.1876H39.105ZM44.0633 27.2292C41.3241 27.2292 39.105 29.4483 39.105 32.1876H41.105C41.105 30.5529 42.4286 29.2292 44.0633 29.2292V27.2292ZM49.0216 32.1876C49.0216 29.4483 46.8026 27.2292 44.0633 27.2292V29.2292C45.698 29.2292 47.0216 30.5529 47.0216 32.1876H49.0216ZM49.0216 53.9583V32.1876H47.0216V53.9583H49.0216ZM48.0235 52.9583H48.0216V54.9583H48.0235V52.9583ZM49.0235 56.9072V53.9583H47.0235V56.9072H49.0235ZM49.0235 58.9774V56.9072H47.0235V58.9774H49.0235ZM49.0235 67.8124V58.9774H47.0235V67.8124H49.0235ZM36.1485 80.6874C43.2597 80.6874 49.0235 74.9237 49.0235 67.8124H47.0235C47.0235 73.8191 42.1552 78.6874 36.1485 78.6874V80.6874ZM29.3857 80.6874H36.1485V78.6874H29.3857V80.6874ZM26.0647 80.6874H29.3857V78.6874H26.0647V80.6874ZM9.09163 69.9894C12.2166 76.5257 18.8177 80.6874 26.0647 80.6874V78.6874C19.5881 78.6874 13.6888 74.9681 10.896 69.1267L9.09163 69.9894ZM7.43043 66.516L9.09169 69.9895L10.896 69.1266L9.2347 65.6531L7.43043 66.516ZM2.1531 55.9632L7.43817 66.5318L9.22697 65.6373L3.94191 55.0686L2.1531 55.9632ZM4.91592 47.6746C1.8648 49.2002 0.627697 52.91 2.15294 55.9628L3.94207 55.069C2.91023 53.0037 3.74729 50.495 5.81034 49.4635L4.91592 47.6746ZM13.2043 50.4372C11.6767 47.3843 7.97106 46.1494 4.91647 47.6743L5.80979 49.4637C7.87729 48.4316 10.3823 49.2669 11.4157 51.3321L13.2043 50.4372ZM17.2494 58.5274L13.2044 50.4374L11.4156 51.3319L15.4606 59.4218L17.2494 58.5274ZM15.355 28.2291V58.9746H17.355V28.2291H15.355ZM20.3133 23.2708C17.5741 23.2708 15.355 25.4899 15.355 28.2291H17.355C17.355 26.5944 18.6786 25.2708 20.3133 25.2708V23.2708ZM25.2716 28.2291C25.2716 25.4899 23.0526 23.2708 20.3133 23.2708V25.2708C21.948 25.2708 23.2716 26.5944 23.2716 28.2291H25.2716ZM25.2716 53.9583V28.2291H23.2716V53.9583H25.2716ZM24.2725 52.9583H24.2716V54.9583H24.2725V52.9583ZM58.8966 32.1876V53.9583H60.8966V32.1876H58.8966ZM55.9383 29.2292C57.573 29.2292 58.8966 30.5529 58.8966 32.1876H60.8966C60.8966 29.4483 58.6776 27.2292 55.9383 27.2292V29.2292ZM52.98 32.1876C52.98 30.5529 54.3036 29.2292 55.9383 29.2292V27.2292C53.1991 27.2292 50.98 29.4483 50.98 32.1876H52.98ZM52.98 53.9583V32.1876H50.98V53.9583H52.98ZM52.98 56.9072V53.9583H50.98V56.9072H52.98ZM52.98 58.9774V56.9072H50.98V58.9774H52.98ZM52.98 65.8334V58.9774H50.98V65.8334H52.98ZM52.98 67.8124V65.8334H50.98V67.8124H52.98ZM63.855 78.6874C57.8483 78.6874 52.98 73.8191 52.98 67.8124H50.98C50.98 74.9237 56.7437 80.6874 63.855 80.6874V78.6874ZM70.6178 78.6874H63.855V80.6874H70.6178V78.6874ZM73.9388 78.6874H70.6178V80.6874H73.9388V78.6874ZM89.1075 69.1267C86.3147 74.9681 80.4154 78.6874 73.9388 78.6874V80.6874C81.1858 80.6874 87.7869 76.5257 90.9119 69.9894L89.1075 69.1267ZM90.8274 65.5305L89.1075 69.1266L90.9118 69.9895L92.6317 66.3934L90.8274 65.5305ZM91.4765 66.9294L91.4778 66.9297L91.9813 64.9941L91.98 64.9938L91.4765 66.9294ZM96.0574 55.0686L90.8338 65.5143L92.6226 66.4088L97.8462 55.9632L96.0574 55.0686ZM94.189 49.4635C96.252 50.495 97.0891 53.0037 96.0572 55.069L97.8464 55.9628C99.3716 52.91 98.1345 49.2002 95.0834 47.6746L94.189 49.4635ZM88.5836 51.3321C89.617 49.2669 92.122 48.4316 94.1895 49.4637L95.0828 47.6743C92.0283 46.1494 88.3226 47.3843 86.795 50.4372L88.5836 51.3321ZM84.5411 59.4172L88.5837 51.3319L86.7949 50.4374L82.7522 58.5228L84.5411 59.4172ZM82.6466 53.9583V58.97H84.6466V53.9583H82.6466ZM82.6466 28.2291V53.9583H84.6466V28.2291H82.6466ZM79.6883 25.2708C81.323 25.2708 82.6466 26.5944 82.6466 28.2291H84.6466C84.6466 25.4899 82.4276 23.2708 79.6883 23.2708V25.2708ZM76.7312 28.1429C76.7765 26.5485 78.0824 25.2708 79.6883 25.2708V23.2708C76.9969 23.2708 74.8079 25.4127 74.732 28.0861L76.7312 28.1429ZM74.7316 24.2708V28.1145H76.7316V24.2708H74.7316ZM71.7733 21.3125C73.408 21.3125 74.7316 22.6361 74.7316 24.2708H76.7316C76.7316 21.5316 74.5125 19.3125 71.7733 19.3125V21.3125ZM68.8149 24.2708C68.8149 22.6361 70.1386 21.3125 71.7733 21.3125V19.3125C69.034 19.3125 66.8149 21.5316 66.8149 24.2708H68.8149ZM68.8149 53.9583V24.2708H66.8149V53.9583H68.8149ZM67.8141 54.9583H67.8149V52.9583H67.8141V54.9583ZM68.8141 53.9583V26.2501H66.8141V53.9583H68.8141ZM68.8141 26.2501C68.8141 23.5108 66.5951 21.2917 63.8558 21.2917V23.2917C65.4905 23.2917 66.8141 24.6154 66.8141 26.2501H68.8141ZM63.8558 21.2917C61.1165 21.2917 58.8975 23.5108 58.8975 26.2501H60.8975C60.8975 24.6154 62.2211 23.2917 63.8558 23.2917V21.2917ZM58.8975 26.2501V53.9583H60.8975V26.2501H58.8975ZM59.8966 54.9583H59.8975V52.9583H59.8966V54.9583Z" fill="#31343D" mask="url(#path-13-outside-1_4722_4398)"/>
<path d="M50 55.2083C50 48.8833 55.1333 43.75 61.4583 43.75C67.7833 43.75 72.9166 48.8833 72.9166 55.2083C72.9166 58.2896 71.6916 61.0813 69.7125 63.1417L69.7187 63.1437L69.6646 63.1937C69.3521 63.5146 69.025 63.8167 68.6771 64.1L50 81.25L31.3229 64.1C30.975 63.8187 30.6479 63.5146 30.3354 63.1937L30.2812 63.1437L30.2875 63.1417C28.3083 61.0813 27.0833 58.2896 27.0833 55.2083C27.0833 48.8833 32.2166 43.75 38.5416 43.75C44.8666 43.75 50 48.8833 50 55.2083ZM50 55.2083C50 55.5667 50 55.5667 50 55.2083Z" stroke="#DA1A35" stroke-linejoin="round"/>
<path fill-rule="evenodd" clip-rule="evenodd" d="M67.8149 50.6758C70.8898 52.7313 72.9159 56.2347 72.9159 60.2083C72.9159 63.2896 71.6909 66.0813 69.7117 68.1417L69.7179 68.1437L69.6638 68.1938C69.3513 68.5146 69.0242 68.8167 68.6763 69.1L58.5208 78.4251C54.6411 76.4715 51.98 72.4531 51.98 67.8124V65.8334V58.9774V56.9072V53.9583V53.7694C53.7654 51.1475 56.61 49.3039 59.8966 48.8556V53.9583H59.8975V48.8555C60.4076 48.7859 60.9284 48.75 61.4575 48.75C63.8085 48.75 65.9948 49.4592 67.8141 50.6752V53.9583H67.8149V50.6758ZM48.0216 53.7741V53.9583H48.0235V56.9072V58.9774V67.8124C48.0235 72.4544 45.3608 76.4738 41.4794 78.4268L31.3221 69.1C30.9742 68.8187 30.6471 68.5146 30.3346 68.1938L30.2804 68.1437L30.2867 68.1417C28.3075 66.0813 27.0825 63.2896 27.0825 60.2083C27.0825 53.8833 32.2159 48.75 38.5409 48.75C39.0711 48.75 39.593 48.7861 40.1042 48.8559V53.9583H40.105V48.856C43.3922 49.3053 46.237 51.1506 48.0216 53.7741Z" fill="#E4E5E7"/>
<path d="M61.4575 43.25C68.0586 43.25 73.4154 48.607 73.4155 55.208C73.4155 58.3951 72.1581 61.2838 70.1274 63.4268C70.1068 63.4566 70.0844 63.4855 70.0571 63.5107L70.022 63.543L69.7749 63.7891C69.5317 64.0256 69.278 64.251 69.0132 64.4678L69.0142 64.4688L50.3374 81.6182C50.1462 81.7938 49.8519 81.7938 49.6606 81.6182L30.9937 64.4775C30.6332 64.1851 30.2958 63.8712 29.9761 63.543H29.9751L29.9409 63.5107C29.9123 63.4843 29.888 63.4544 29.8667 63.4229C27.8383 61.2803 26.5825 58.393 26.5825 55.208C26.5827 48.6071 31.9396 43.2502 38.5405 43.25C43.9519 43.25 48.525 46.8509 49.9985 51.7852C51.4719 46.8507 56.046 43.25 61.4575 43.25Z" fill="white" stroke="#DA1A35" stroke-linejoin="round"/>
</svg>
